<svg width="29" height="29" viewBox="0 0 29 29" fill="none" xmlns="http://www.w3.org/2000/svg">
<g clip-path="url(#clip0_1214_7671)">
<path d="M26.6644 8.51544C27.5223 8.51544 28.2177 7.82004 28.2177 6.96222C28.2177 6.1044 27.5223 5.40901 26.6644 5.40901V8.51544ZM18.3806 5.40901C17.5228 5.40901 16.8274 6.1044 16.8274 6.96222C16.8274 7.82004 17.5228 8.51544 18.3806 8.51544V5.40901ZM25.4759 20.9412C26.3337 20.9412 27.0291 20.2458 27.0291 19.3879C27.0291 18.5301 26.3337 17.8347 25.4759 17.8347V20.9412ZM18.3806 17.8347C17.5228 17.8347 16.8274 18.5301 16.8274 19.3879C16.8274 20.2458 17.5228 20.9412 18.3806 20.9412V17.8347ZM25.4759 25.9655C26.3337 25.9655 27.0291 25.2701 27.0291 24.4123C27.0291 23.5544 26.3337 22.859 25.4759 22.859V25.9655ZM18.3806 22.859C17.5228 22.859 16.8274 23.5544 16.8274 24.4123C16.8274 25.2701 17.5228 25.9655 18.3806 25.9655V22.859ZM24.0757 2.82031C24.0757 1.9625 23.3803 1.2671 22.5225 1.2671C21.6647 1.2671 20.9693 1.9625 20.9693 2.82031H24.0757ZM20.9693 11.1041C20.9693 11.9619 21.6647 12.6573 22.5225 12.6573C23.3803 12.6573 24.0757 11.9619 24.0757 11.1041H20.9693ZM10.1596 19.2977C10.7662 18.6911 10.7662 17.7077 10.1596 17.1011C9.55305 16.4945 8.56961 16.4945 7.96304 17.1011L10.1596 19.2977ZM1.75018 23.314C1.14361 23.9205 1.14361 24.904 1.75018 25.5105C2.35674 26.1171 3.34019 26.1171 3.94675 25.5105L1.75018 23.314ZM3.94676 17.1011C3.34019 16.4945 2.35674 16.4945 1.75018 17.1011C1.14361 17.7077 1.14361 18.6911 1.75018 19.2977L3.94676 17.1011ZM7.96304 25.5105C8.56961 26.1171 9.55305 26.1171 10.1596 25.5105C10.7662 24.904 10.7662 23.9205 10.1596 23.314L7.96304 25.5105ZM1.81299 5.40901C0.955171 5.40901 0.259772 6.1044 0.259772 6.96222C0.259772 7.82004 0.955171 8.51544 1.81299 8.51544V5.40901ZM9.06133 8.51544C9.91915 8.51544 10.6145 7.82004 10.6145 6.96222C10.6145 6.1044 9.91915 5.40901 9.06133 5.40901V8.51544ZM26.6644 5.40901H18.3806V8.51544H26.6644V5.40901ZM25.4759 17.8347H18.3806V20.9412H25.4759V17.8347ZM25.4759 22.859H18.3806V25.9655H25.4759V22.859ZM26.6644 5.40901H22.5225V8.51544H26.6644V5.40901ZM22.5225 5.40901H18.3806V8.51544H22.5225V5.40901ZM24.0757 6.96222V2.82031H20.9693V6.96222H24.0757ZM20.9693 6.96222V11.1041H24.0757V6.96222H20.9693ZM7.96304 17.1011L4.85661 20.2075L7.05319 22.4041L10.1596 19.2977L7.96304 17.1011ZM4.85661 20.2075L1.75018 23.314L3.94675 25.5105L7.05319 22.4041L4.85661 20.2075ZM7.05319 20.2075L3.94676 17.1011L1.75018 19.2977L4.85661 22.4041L7.05319 20.2075ZM4.85661 22.4041L7.96304 25.5105L10.1596 23.314L7.05319 20.2075L4.85661 22.4041ZM1.81299 8.51544H9.06133V5.40901H1.81299V8.51544Z" fill="#5A70D5"/>
</g>
<defs>
<clipPath id="clip0_1214_7671">
<rect width="28.5254" height="28.5254" fill="white"/>
</clipPath>
</defs>
</svg>
