<svg width="18" height="18" viewBox="0 0 18 18" fill="none" xmlns="http://www.w3.org/2000/svg">
<path d="M2.64153 0.434842L8.85816 6.65147L15.0426 0.467053C15.1792 0.32165 15.3437 0.205333 15.5264 0.125077C15.7091 0.0448207 15.906 0.00227784 16.1055 0C16.5327 0 16.9423 0.16968 17.2443 0.471712C17.5464 0.773744 17.7161 1.18339 17.7161 1.61053C17.7198 1.80798 17.6832 2.00412 17.6084 2.1869C17.5336 2.36969 17.4223 2.53527 17.2812 2.67347L11.0163 8.85789L17.2812 15.1228C17.5466 15.3825 17.7023 15.7342 17.7161 16.1053C17.7161 16.5324 17.5464 16.942 17.2443 17.2441C16.9423 17.5461 16.5327 17.7158 16.1055 17.7158C15.9003 17.7243 15.6955 17.69 15.5042 17.6152C15.3129 17.5403 15.1392 17.4265 14.9943 17.2809L8.85816 11.0643L2.65763 17.2648C2.52155 17.4054 2.35898 17.5176 2.17931 17.595C1.99963 17.6724 1.80641 17.7135 1.61079 17.7158C1.18365 17.7158 0.774006 17.5461 0.471974 17.2441C0.169942 16.942 0.000262043 16.5324 0.000262043 16.1053C-0.00349289 15.9078 0.0331416 15.7117 0.107918 15.5289C0.182694 15.3461 0.294034 15.1805 0.435104 15.0423L6.70005 8.85789L0.435104 2.59295C0.169665 2.33326 0.0140153 1.98161 0.000262043 1.61053C0.000262043 1.18339 0.169942 0.773744 0.471974 0.471712C0.774006 0.16968 1.18365 0 1.61079 0C1.99731 0.00483158 2.36774 0.161053 2.64153 0.434842Z" fill="#FF842B"/>
</svg>
