<svg width="18" height="18" viewBox="0 0 18 18" fill="none" xmlns="http://www.w3.org/2000/svg">
<path d="M16.7428 7.5691L3.91799 7.5691L9.52096 1.96614C9.96873 1.51836 9.96873 0.783546 9.52096 0.335769C9.41474 0.229331 9.28857 0.144888 9.14967 0.0872721C9.01078 0.0296563 8.86188 0 8.71151 0C8.56114 0 8.41224 0.0296563 8.27335 0.0872721C8.13445 0.144888 8.00829 0.229331 7.90207 0.335769L0.335769 7.90206C0.229332 8.00828 0.144888 8.13445 0.0872726 8.27335C0.0296569 8.41224 0 8.56114 0 8.71151C0 8.86188 0.0296569 9.01077 0.0872726 9.14967C0.144888 9.28856 0.229332 9.41473 0.335769 9.52095L7.90207 17.0872C8.00836 17.1935 8.13456 17.2779 8.27344 17.3354C8.41233 17.3929 8.56118 17.4225 8.71151 17.4225C8.86184 17.4225 9.01069 17.3929 9.14958 17.3354C9.28846 17.2779 9.41466 17.1935 9.52096 17.0872C9.62725 16.981 9.71157 16.8548 9.7691 16.7159C9.82663 16.577 9.85624 16.4281 9.85624 16.2778C9.85624 16.1275 9.82663 15.9786 9.7691 15.8397C9.71157 15.7009 9.62725 15.5747 9.52096 15.4684L3.91799 9.8654L16.7428 9.8654C17.3743 9.8654 17.891 9.34873 17.891 8.71725C17.891 8.08577 17.3743 7.5691 16.7428 7.5691Z" fill="#5A70D5"/>
</svg>
