<svg width="312" height="61" viewBox="0 0 312 61" fill="none" xmlns="http://www.w3.org/2000/svg">
<path d="M131.5 31C131.5 24.5022 134.081 18.2705 138.676 13.6759C143.271 9.08124 149.502 6.5 156 6.5C162.498 6.5 168.729 9.08124 173.324 13.6759C177.919 18.2705 180.5 24.5022 180.5 31C180.5 37.4978 177.919 43.7295 173.324 48.3241C168.729 52.9188 162.498 55.5 156 55.5C149.502 55.5 143.271 52.9188 138.676 48.3241C134.081 43.7295 131.5 37.4978 131.5 31ZM162.524 17.504C162.187 17.1798 161.738 16.9986 161.271 16.9986C160.804 16.9986 160.355 17.1798 160.018 17.504C159.854 17.6623 159.723 17.8521 159.634 18.062C159.545 18.2718 159.499 18.4975 159.499 18.7255C159.499 18.9535 159.545 19.1792 159.634 19.389C159.723 19.5989 159.854 19.7887 160.018 19.947C161.504 21.379 162.686 23.0959 163.493 24.995C164.3 26.8941 164.716 28.9365 164.716 31C164.716 33.0635 164.3 35.1059 163.493 37.005C162.686 38.9041 161.504 40.621 160.018 42.053C159.854 42.2113 159.723 42.4011 159.634 42.611C159.545 42.8208 159.499 43.0465 159.499 43.2745C159.499 43.5025 159.545 43.7282 159.634 43.938C159.723 44.1479 159.854 44.3377 160.018 44.496C160.355 44.8202 160.804 45.0014 161.271 45.0014C161.738 45.0014 162.187 44.8202 162.524 44.496C164.338 42.7476 165.782 40.6513 166.767 38.3324C167.753 36.0135 168.261 33.5197 168.261 31C168.261 28.4803 167.753 25.9865 166.767 23.6676C165.782 21.3487 164.338 19.2524 162.524 17.504ZM155.454 21.018C155.295 20.8533 155.105 20.7223 154.895 20.6328C154.684 20.5433 154.458 20.4972 154.229 20.4972C154 20.4972 153.774 20.5433 153.563 20.6328C153.353 20.7223 153.163 20.8533 153.004 21.018C152.679 21.3541 152.497 21.8034 152.497 22.271C152.497 22.7386 152.679 23.1879 153.004 23.524C154.943 25.528 156.028 28.2076 156.028 30.9965C156.028 33.7854 154.943 36.465 153.004 38.469C152.679 38.8051 152.497 39.2544 152.497 39.722C152.497 40.1896 152.679 40.6389 153.004 40.975C153.163 41.1397 153.353 41.2707 153.563 41.3602C153.774 41.4497 154 41.4958 154.229 41.4958C154.458 41.4958 154.684 41.4497 154.895 41.3602C155.105 41.2707 155.295 41.1397 155.454 40.975C160.83 35.4625 160.83 26.5305 155.454 21.018ZM145.983 24.5355C145.667 24.8936 145.493 25.3547 145.493 25.8322C145.493 26.3098 145.667 26.7709 145.983 27.129C147.918 29.264 147.918 32.7325 145.983 34.871C145.668 35.2289 145.494 35.6893 145.494 36.166C145.494 36.6427 145.668 37.1031 145.983 37.461C146.129 37.6293 146.309 37.7643 146.512 37.8568C146.714 37.9493 146.935 37.9971 147.157 37.9971C147.38 37.9971 147.6 37.9493 147.803 37.8568C148.005 37.7643 148.186 37.6293 148.332 37.461C151.569 33.891 151.569 28.1055 148.332 24.5355C148.186 24.3678 148.005 24.2333 147.803 24.1412C147.601 24.0491 147.381 24.0014 147.159 24.0014C146.937 24.0014 146.717 24.0491 146.515 24.1412C146.313 24.2333 146.129 24.3678 145.983 24.5355Z" fill="#0A1032"/>
</svg>
