<svg width="122" height="122" viewBox="0 0 122 122" fill="none" xmlns="http://www.w3.org/2000/svg">
<g clip-path="url(#clip0_1167_4782)">
<path d="M32.4618 46.6627H33.4762C37.3817 46.6627 40.5771 49.8581 40.5771 53.7636L40.5771 89.2683C40.5771 93.1738 37.3817 96.3692 33.4762 96.3692H32.4618C28.5563 96.3692 25.3608 93.1738 25.3608 89.2683L25.3608 53.7636C25.3608 49.8581 28.5563 46.6627 32.4618 46.6627V46.6627ZM60.8655 25.3599C64.771 25.3599 67.9665 28.5553 67.9665 32.4608V89.2683C67.9665 93.1738 64.771 96.3692 60.8655 96.3692C56.96 96.3692 53.7646 93.1738 53.7646 89.2683L53.7646 32.4608C53.7646 28.5553 56.96 25.3599 60.8655 25.3599ZM89.2693 65.9366C93.1748 65.9366 96.3702 69.1321 96.3702 73.0376L96.3702 89.2683C96.3702 93.1738 93.1748 96.3692 89.2693 96.3692C85.3638 96.3692 82.1683 93.1738 82.1683 89.2683V73.0376C82.1683 69.1321 85.3638 65.9366 89.2693 65.9366V65.9366Z" fill="#5A70D5"/>
</g>
<defs>
<clipPath id="clip0_1167_4782">
<rect width="121.73" height="121.73" fill="white"/>
</clipPath>
</defs>
</svg>
