<svg width="97" height="97" viewBox="0 0 97 97" fill="none" xmlns="http://www.w3.org/2000/svg">
<path d="M48.2369 18.2031C43.5571 14.0067 37.424 11.803 31.1436 12.0614C24.8632 12.3198 18.9318 15.0198 14.6125 19.5864C10.2932 24.153 7.9273 30.2254 8.01866 36.5105C8.11003 42.7955 10.6514 48.7966 15.1016 53.2358L42.5529 80.6831C44.0606 82.1903 46.1051 83.037 48.2369 83.037C50.3688 83.037 52.4133 82.1903 53.921 80.6831L81.3723 53.2358C85.8225 48.7966 88.3639 42.7955 88.4552 36.5105C88.5466 30.2254 86.1807 24.153 81.8614 19.5864C77.5421 15.0198 71.6107 12.3198 65.3303 12.0614C59.0499 11.803 52.9167 14.0067 48.2369 18.2031ZM43.5257 24.8117L45.3949 26.6768C46.1488 27.4304 47.171 27.8538 48.2369 27.8538C49.3029 27.8538 50.3251 27.4304 51.0789 26.6768L52.9482 24.8117C54.4314 23.2759 56.2057 22.051 58.1674 21.2083C60.1292 20.3656 62.2391 19.922 64.3741 19.9035C66.5091 19.8849 68.6264 20.2917 70.6025 21.1002C72.5785 21.9087 74.3738 23.1026 75.8835 24.6124C77.3933 26.1221 78.5872 27.9174 79.3957 29.8934C80.2042 31.8695 80.611 33.9868 80.5924 36.1218C80.5739 38.2568 80.1303 40.3667 79.2876 42.3285C78.4449 44.2902 77.22 46.0645 75.6842 47.5477L48.2369 74.999L20.7896 47.5477C17.8607 44.5151 16.24 40.4535 16.2766 36.2376C16.3133 32.0216 18.0043 27.9887 20.9855 25.0075C23.9667 22.0263 27.9996 20.3353 32.2155 20.2986C36.4315 20.262 40.4931 21.8827 43.5257 24.8117Z" fill="#5A70D5"/>
<path d="M80.3964 39.4673L16.0793 39.4673L19.0028 46.776L49.6996 77.4728L80.3964 46.776V39.4673Z" fill="#5A70D5" stroke="#5A70D5" stroke-width="2.9235"/>
</svg>
