<svg width="199" height="213" viewBox="0 0 199 213" fill="none" xmlns="http://www.w3.org/2000/svg">
<path d="M181.649 106.091C181.649 155.553 141.552 195.65 92.0902 195.65C42.6284 195.65 2.53162 155.553 2.53162 106.091C2.53162 56.6295 42.6284 16.5327 92.0902 16.5327C141.552 16.5327 181.649 56.6295 181.649 106.091ZM3.62632 106.091C3.62632 154.949 43.233 194.555 92.0902 194.555C140.947 194.555 180.554 154.949 180.554 106.091C180.554 57.2341 140.947 17.6274 92.0902 17.6274C43.233 17.6274 3.62632 57.2341 3.62632 106.091Z" fill="white" fill-opacity="0.2"/>
<circle cx="92.0903" cy="106.09" r="88.9686" stroke="#E7E7E7" stroke-width="6.24341"/>
<g filter="url(#filter0_d_1167_4768)">
<path d="M92.0903 16.9815C92.0903 15.3349 93.4256 13.995 95.0714 14.0483C107.783 14.4599 120.283 17.5009 131.779 22.9916C144.173 28.911 155.086 37.5276 163.718 48.2105C172.351 58.8933 178.484 71.3718 181.67 84.732C184.855 98.0922 185.012 111.996 182.128 125.424C179.245 138.853 173.394 151.466 165.004 162.341C156.615 173.216 145.899 182.076 133.642 188.273C121.385 194.471 107.897 197.848 94.1658 198.157C81.429 198.444 68.7823 196.085 57.0222 191.242C55.4996 190.615 54.8321 188.845 55.5081 187.344V187.344C56.1841 185.842 57.9475 185.178 59.4715 185.802C70.4196 190.282 82.1838 192.463 94.0314 192.196C106.873 191.906 119.488 188.748 130.952 182.952C142.415 177.156 152.437 168.869 160.283 158.699C168.129 148.528 173.601 136.731 176.298 124.172C178.995 111.613 178.848 98.6101 175.869 86.115C172.89 73.6199 167.154 61.9494 159.08 51.9583C151.007 41.9671 140.801 33.9084 129.21 28.3723C118.516 23.265 106.893 20.424 95.0713 20.0146C93.4257 19.9576 92.0903 18.6281 92.0903 16.9815V16.9815Z" fill="#5A70D5"/>
<path d="M92.0903 16.9815C92.0903 15.3349 93.4256 13.995 95.0714 14.0483C107.783 14.4599 120.283 17.5009 131.779 22.9916C144.173 28.911 155.086 37.5276 163.718 48.2105C172.351 58.8933 178.484 71.3718 181.67 84.732C184.855 98.0922 185.012 111.996 182.128 125.424C179.245 138.853 173.394 151.466 165.004 162.341C156.615 173.216 145.899 182.076 133.642 188.273C121.385 194.471 107.897 197.848 94.1658 198.157C81.429 198.444 68.7823 196.085 57.0222 191.242C55.4996 190.615 54.8321 188.845 55.5081 187.344V187.344C56.1841 185.842 57.9475 185.178 59.4715 185.802C70.4196 190.282 82.1838 192.463 94.0314 192.196C106.873 191.906 119.488 188.748 130.952 182.952C142.415 177.156 152.437 168.869 160.283 158.699C168.129 148.528 173.601 136.731 176.298 124.172C178.995 111.613 178.848 98.6101 175.869 86.115C172.89 73.6199 167.154 61.9494 159.08 51.9583C151.007 41.9671 140.801 33.9084 129.21 28.3723C118.516 23.265 106.893 20.424 95.0713 20.0146C93.4257 19.9576 92.0903 18.6281 92.0903 16.9815V16.9815Z" stroke="#5A70D5" stroke-width="6.24341"/>
</g>
<path d="M92.1902 107.106C96.8912 107.106 98.9259 104.229 98.9259 99.3882C98.9259 95.1082 96.821 92.0911 92.1902 92.0911C87.5594 92.0911 85.5948 94.9678 85.5948 99.3882C85.5948 104.229 87.4892 107.106 92.1902 107.106ZM92.1902 84.8642C95.979 84.8642 97.8735 82.2682 97.8735 78.6196C97.8735 74.8308 95.979 72.3049 92.1902 72.3049C88.4013 72.3049 86.5069 74.8308 86.5069 78.6196C86.5069 82.2682 88.4013 84.8642 92.1902 84.8642ZM101.382 87.5305C105.592 89.4249 108.328 94.196 108.328 99.3882C108.328 108.229 103.066 114.614 92.2604 114.614C81.5253 114.614 76.0525 108.018 76.0525 99.8092C76.0525 94.4065 78.5082 90.2669 83.3495 87.9514C79.4905 85.9868 78.0872 81.6367 78.0872 77.7075C78.0872 70.3403 84.1213 64.8675 92.2604 64.8675C101.452 64.8675 106.223 70.3403 106.223 77.4268C106.223 81.4963 104.96 85.7062 101.382 87.5305Z" fill="#0A1032"/>
<path d="M62.0944 143.355C60.1631 143.355 58.626 142.813 57.483 141.729C56.3598 140.645 55.7981 139.118 55.7981 137.147H58.9315C58.9315 138.132 59.1679 138.95 59.6409 139.601C60.1336 140.251 60.9317 140.576 62.0352 140.576C63.1191 140.576 63.8877 140.271 64.3409 139.66C64.7942 139.029 65.0208 138.231 65.0208 137.265V122.308H68.1541V137.265C68.1541 139.216 67.6122 140.724 66.5283 141.788C65.4445 142.832 63.9665 143.355 62.0944 143.355ZM78.489 143.355C77.0898 143.355 75.8286 143.039 74.7053 142.409C73.6018 141.758 72.7248 140.862 72.0745 139.719C71.4242 138.556 71.099 137.206 71.099 135.669C71.099 134.132 71.4242 132.792 72.0745 131.649C72.7445 130.486 73.6412 129.59 74.7645 128.959C75.8877 128.309 77.1391 127.984 78.5186 127.984C79.9177 127.984 81.1691 128.309 82.2727 128.959C83.3959 129.59 84.2827 130.486 84.933 131.649C85.6031 132.792 85.9381 134.132 85.9381 135.669C85.9381 137.206 85.6031 138.556 84.933 139.719C84.2827 140.862 83.3959 141.758 82.2727 142.409C81.1494 143.039 79.8882 143.355 78.489 143.355ZM78.489 140.665C79.2378 140.665 79.9276 140.478 80.5582 140.103C81.2085 139.729 81.7307 139.177 82.1249 138.448C82.519 137.699 82.7161 136.773 82.7161 135.669C82.7161 134.566 82.519 133.649 82.1249 132.92C81.7504 132.171 81.2381 131.61 80.5877 131.235C79.9571 130.861 79.2674 130.674 78.5186 130.674C77.7697 130.674 77.0701 130.861 76.4198 131.235C75.7892 131.61 75.2768 132.171 74.8827 132.92C74.4886 133.649 74.2915 134.566 74.2915 135.669C74.2915 136.773 74.4886 137.699 74.8827 138.448C75.2768 139.177 75.7892 139.729 76.4198 140.103C77.0504 140.478 77.7401 140.665 78.489 140.665ZM94.1449 143.355C92.3713 143.355 90.9721 142.803 89.9474 141.699C88.9423 140.596 88.4398 138.95 88.4398 136.763V128.338H91.5732V136.438C91.5732 139.275 92.7358 140.694 95.0612 140.694C96.2239 140.694 97.1797 140.28 97.9285 139.453C98.6774 138.625 99.0518 137.443 99.0518 135.906V128.338H102.185V143H99.4065L99.17 140.428C98.7168 141.335 98.0468 142.054 97.16 142.586C96.2929 143.099 95.2878 143.355 94.1449 143.355ZM105.58 143V128.338H108.388L108.654 131.117C109.166 130.151 109.876 129.393 110.782 128.841C111.709 128.269 112.822 127.984 114.123 127.984V131.265H113.265C112.398 131.265 111.62 131.413 110.93 131.708C110.26 131.984 109.718 132.467 109.304 133.157C108.91 133.827 108.713 134.763 108.713 135.965V143H105.58ZM122.071 143.355C120.218 143.355 118.691 142.901 117.489 141.995C116.287 141.088 115.597 139.886 115.42 138.389H118.583C118.74 139.059 119.115 139.64 119.706 140.133C120.297 140.606 121.076 140.842 122.041 140.842C122.987 140.842 123.677 140.645 124.11 140.251C124.544 139.857 124.761 139.404 124.761 138.891C124.761 138.142 124.455 137.64 123.844 137.384C123.253 137.108 122.426 136.861 121.361 136.645C120.534 136.467 119.706 136.231 118.878 135.935C118.07 135.64 117.391 135.226 116.839 134.694C116.307 134.142 116.041 133.403 116.041 132.477C116.041 131.196 116.533 130.132 117.519 129.284C118.504 128.417 119.883 127.984 121.657 127.984C123.293 127.984 124.613 128.378 125.618 129.166C126.643 129.954 127.244 131.068 127.421 132.506H124.406C124.308 131.876 124.012 131.383 123.519 131.028C123.046 130.674 122.406 130.496 121.598 130.496C120.81 130.496 120.199 130.664 119.765 130.999C119.332 131.314 119.115 131.728 119.115 132.24C119.115 132.753 119.41 133.157 120.002 133.452C120.613 133.748 121.411 134.014 122.396 134.25C123.381 134.467 124.288 134.723 125.115 135.019C125.963 135.295 126.643 135.709 127.155 136.26C127.667 136.812 127.924 137.62 127.924 138.684C127.943 140.024 127.421 141.138 126.357 142.025C125.313 142.911 123.884 143.355 122.071 143.355Z" fill="#5A70D5"/>
<defs>
<filter id="filter0_d_1167_4768" x="41.3648" y="0.165114" width="156.697" height="211.897" filterUnits="userSpaceOnUse" color-interpolation-filters="sRGB">
<feFlood flood-opacity="0" result="BackgroundImageFix"/>
<feColorMatrix in="SourceAlpha" type="matrix" values="0 0 0 0 0 0 0 0 0 0 0 0 0 0 0 0 0 0 127 0" result="hardAlpha"/>
<feOffset/>
<feGaussianBlur stdDeviation="5.37985"/>
<feComposite in2="hardAlpha" operator="out"/>
<feColorMatrix type="matrix" values="0 0 0 0 0.917647 0 0 0 0 0.392157 0 0 0 0 0.835294 0 0 0 0.4 0"/>
<feBlend mode="normal" in2="BackgroundImageFix" result="effect1_dropShadow_1167_4768"/>
<feBlend mode="normal" in="SourceGraphic" in2="effect1_dropShadow_1167_4768" result="shape"/>
</filter>
</defs>
</svg>
