<svg width="87" height="87" viewBox="0 0 87 87" fill="none" xmlns="http://www.w3.org/2000/svg">
<path fill-rule="evenodd" clip-rule="evenodd" d="M51.7382 7.79783C50.3976 7.24707 48.6946 7.24707 45.2922 7.24707C41.8898 7.24707 40.1904 7.24707 38.8461 7.79783C37.0614 8.53052 35.6408 9.94204 34.8966 11.722C34.556 12.53 34.4256 13.4757 34.3712 14.849C34.3471 15.844 34.0695 16.8164 33.5648 17.6742C33.0601 18.5321 32.345 19.247 31.487 19.7515C30.6128 20.2374 29.6301 20.4948 28.63 20.4998C27.6299 20.5049 26.6447 20.2575 25.7656 19.7804C24.5409 19.1355 23.6532 18.7804 22.7763 18.6644C20.8579 18.4125 18.9176 18.9282 17.3774 20.0993C16.2252 20.9762 15.3737 22.44 13.6743 25.3641C11.9713 28.2882 11.1234 29.7484 10.9314 31.1797C10.6778 33.0856 11.1995 35.0132 12.3808 36.5387C12.917 37.2344 13.6743 37.8178 14.8447 38.5497C16.573 39.6258 17.6818 41.4593 17.6818 43.4812C17.6818 45.503 16.573 47.3365 14.8483 48.409C13.6743 49.1445 12.917 49.7279 12.3771 50.4236C11.7941 51.1771 11.3661 52.0386 11.1179 52.9584C10.8698 53.8783 10.8064 54.8381 10.9314 55.7826C11.1234 57.2102 11.9713 58.6741 13.6743 61.5982C15.3773 64.5223 16.2252 65.9825 17.3774 66.863C18.9138 68.0334 20.8559 68.5479 22.7763 68.2979C23.6532 68.1819 24.5409 67.8268 25.7656 67.1819C26.6451 66.7042 27.631 66.4564 28.6318 66.4615C29.6327 66.4665 30.616 66.7243 31.4906 67.2108C33.2516 68.2254 34.2951 70.0915 34.3712 72.1133C34.4256 73.4902 34.556 74.4323 34.8966 75.2403C35.6358 77.0158 37.0562 78.4289 38.8461 79.1645C40.1868 79.7152 41.8898 79.7152 45.2922 79.7152C48.6946 79.7152 50.3976 79.7152 51.7382 79.1645C53.5229 78.4318 54.9436 77.0203 55.6877 75.2403C56.0283 74.4323 56.1588 73.4902 56.2131 72.1133C56.2856 70.0915 57.3328 68.2218 59.0974 67.2108C59.9715 66.7249 60.9542 66.4675 61.9543 66.4625C62.9544 66.4574 63.9397 66.7048 64.8187 67.1819C66.0434 67.8268 66.9312 68.1819 67.808 68.2979C69.7284 68.5515 71.6706 68.0334 73.2069 66.863C74.3591 65.9861 75.2106 64.5223 76.91 61.5982C78.613 58.6741 79.4609 57.2139 79.6529 55.7826C79.7774 54.8379 79.7135 53.8779 79.4647 52.958C79.2159 52.0382 78.7873 51.1768 78.2036 50.4236C77.6673 49.7279 76.91 49.1445 75.7397 48.4126C74.0113 47.3365 72.9025 45.503 72.9025 43.4812C72.9025 41.4593 74.0113 39.6258 75.736 38.5533C76.91 37.8178 77.6673 37.2344 78.2072 36.5387C78.7903 35.7852 79.2182 34.9237 79.4664 34.0039C79.7145 33.084 79.7779 32.1242 79.6529 31.1797C79.4609 29.7521 78.613 28.2882 76.91 25.3641C75.207 22.44 74.3591 20.9798 73.2069 20.0993C71.6667 18.9282 69.7264 18.4125 67.808 18.6644C66.9312 18.7804 66.0434 19.1355 64.8187 19.7804C63.9392 20.2581 62.9533 20.5059 61.9525 20.5008C60.9517 20.4958 59.9683 20.238 59.0937 19.7515C58.2364 19.2466 57.522 18.5314 57.0179 17.6736C56.5139 16.8158 56.2369 15.8436 56.2131 14.849C56.1588 13.4721 56.0283 12.53 55.6877 11.722C55.3194 10.8405 54.781 10.0403 54.1034 9.36697C53.4257 8.69365 52.622 8.16045 51.7382 7.79783ZM45.2922 54.3514C51.3433 54.3514 56.2457 49.4851 56.2457 43.4812C56.2457 37.4772 51.3396 32.6109 45.2922 32.6109C39.2411 32.6109 34.3386 37.4772 34.3386 43.4812C34.3386 49.4851 39.2447 54.3514 45.2922 54.3514Z" fill="#5A70D5"/>
</svg>
